# xmcd
#
# Track frame offsets:
#	150
#	16189
#	40500
#	59518
#	78796
#	94119
#	109210
#	133690
#	155116
#	171939
#	186588
#	203617
#	224186
#	242150
#
# Disc length: 3413 seconds
#
# Revision: 0
# Processed by: cddbd v1.5.1PL2 Copyright (c) Steve Scherf et al.
# Submitted via: dBpowerAMP V4.0
#
DISCID=c70d530e
DTITLE=Deborah Justice and Rachel Sprinkle - The Preachers' Daughters
DYEAR=1900
DGENRE=Celtic
TTITLE0=Boneparte Crossing the Rhine - Cumberland Gap
TTITLE1=Josefin's Dopvals
TTITLE2=Mt. Royal - Le Crepescule
TTITLE3=Dutch Student March
TTITLE4=Swedish Walking Tune
TTITLE5=Slangpolska Efter Byss Kalle
TTITLE6=Les Poulees Huppees - Jump at the Sun
TTITLE7=McDonald's Reel
TTITLE8=Da Slockit Licht
TTITLE9=Da Road to Houll
TTITLE10=My Darling Asleep - Petit Sarny
TTITLE11=Rosco-Moses Hoe Your Corn-Mike in the Wilderness
TTITLE12=Waltz of My Dreams
TTITLE13=Journey to the Heartland
EXTD=
EXTT0=
EXTT1=
EXTT2=
EXTT3=
EXTT4=
EXTT5=
EXTT6=
EXTT7=
EXTT8=
EXTT9=
EXTT10=
EXTT11=
EXTT12=
EXTT13=
PLAYORDER=
